<svg xmlns="http://www.w3.org/2000/svg" width="546" fill="none" style="width:115px" viewBox="0 0 546 128"><path fill="gray" d="M173.588 100.157c-1.216 0-2.24-.4164-3.072-1.2484-.832-.832-1.248-1.856-1.248-3.072v-62.304c0-1.216.416-2.24 1.248-3.072.832-.896 1.856-1.344 3.072-1.344 1.28 0 2.336.416 3.168 1.248.832.832 1.248 1.888 1.248 3.168v62.304c0 1.216-.448 2.24-1.344 3.072-.832.832-1.856 1.2484-3.072 1.2484Zm40.514.48c-7.808 0-13.92-2.2084-18.336-6.6244-4.352-4.48-6.528-10.752-6.528-18.816 0-4.544.832-8.736 2.496-12.576 1.664-3.84 4.224-6.944 7.68-9.312 3.456-2.368 7.712-3.552 12.768-3.552 4.736 0 8.832 1.12 12.288 3.36 3.456 2.176 6.08 5.12 7.872 8.832 1.792 3.648 2.688 7.648 2.688 12 0 1.216-.416 2.24-1.248 3.072-.768.832-1.824 1.248-3.168 1.248H198.07c.512 4.48 2.176 7.968 4.992 10.464 2.816 2.496 6.752 3.744 11.808 3.744 2.688 0 5.024-.256 7.008-.768 2.048-.512 4.032-1.248 5.952-2.208.512-.256 1.088-.384 1.728-.384 1.024 0 1.92.352 2.688 1.056.768.704 1.152 1.6 1.152 2.688 0 1.408-.832 2.592-2.496 3.552-2.496 1.408-4.96 2.464-7.392 3.168-2.432.7044-5.568 1.0564-9.408 1.0564Zm12.288-29.4724c-.192-3.136-1.024-5.76-2.496-7.872-1.408-2.112-3.168-3.648-5.28-4.608-2.112-1.024-4.256-1.536-6.432-1.536s-4.32.512-6.432 1.536c-2.112.96-3.872 2.496-5.28 4.608-1.408 2.112-2.208 4.736-2.4 7.872h28.32Zm36.147 28.9924c-1.152 0-2.208-.3204-3.168-.9604-.96-.704-1.664-1.568-2.112-2.592l-16.704-39.936c-.32-.768-.48-1.44-.48-2.016 0-1.216.416-2.24 1.248-3.072.832-.896 1.856-1.344 3.072-1.344.832 0 1.6.256 2.304.768.768.448 1.312 1.024 1.632 1.728l14.688 37.248 14.688-37.248c.32-.704.832-1.28 1.536-1.728.768-.512 1.568-.768 2.4-.768 1.216 0 2.24.448 3.072 1.344.832.832 1.248 1.856 1.248 3.072 0 .576-.16 1.248-.48 2.016l-16.704 39.936c-.448 1.024-1.152 1.888-2.112 2.592-.96.64-2.016.9604-3.168.9604h-.96Zm53.802.48c-7.808 0-13.92-2.2084-18.336-6.6244-4.352-4.48-6.528-10.752-6.528-18.816 0-4.544.832-8.736 2.496-12.576 1.664-3.84 4.224-6.944 7.68-9.312 3.456-2.368 7.712-3.552 12.768-3.552 4.736 0 8.832 1.12 12.288 3.36 3.456 2.176 6.08 5.12 7.872 8.832 1.792 3.648 2.688 7.648 2.688 12 0 1.216-.416 2.24-1.248 3.072-.768.832-1.824 1.248-3.168 1.248h-32.544c.512 4.48 2.176 7.968 4.992 10.464 2.816 2.496 6.752 3.744 11.808 3.744 2.688 0 5.024-.256 7.008-.768 2.048-.512 4.032-1.248 5.952-2.208.512-.256 1.088-.384 1.728-.384 1.024 0 1.92.352 2.688 1.056.768.704 1.152 1.6 1.152 2.688 0 1.408-.832 2.592-2.496 3.552-2.496 1.408-4.96 2.464-7.392 3.168-2.432.7044-5.568 1.0564-9.408 1.0564Zm12.288-29.4724c-.192-3.136-1.024-5.76-2.496-7.872-1.408-2.112-3.168-3.648-5.28-4.608-2.112-1.024-4.256-1.536-6.432-1.536s-4.32.512-6.432 1.536c-2.112.96-3.872 2.496-5.28 4.608-1.408 2.112-2.208 4.736-2.4 7.872h28.32Zm23.559 28.9924c-1.216 0-2.24-.4164-3.072-1.2484-.832-.832-1.248-1.856-1.248-3.072v-62.304c0-1.216.416-2.24 1.248-3.072.832-.896 1.856-1.344 3.072-1.344 1.28 0 2.336.416 3.168 1.248.832.832 1.248 1.888 1.248 3.168v62.304c0 1.216-.448 2.24-1.344 3.072-.832.832-1.856 1.2484-3.072 1.2484Z"/><path fill="gray" d="m170.516 98.9086.707-.7071-.707.7071Zm0-68.448.707.7071.013-.0131.013-.0135-.733-.6805Zm6.24-.096.707-.7071-.707.7071Zm-.096 68.544-.68-.7328-.014.0126-.013.0131.707.7071Zm-3.072.248c-.961 0-1.727-.3175-2.365-.9551l-1.414 1.4142c1.026 1.0263 2.308 1.5413 3.779 1.5413v-2.0004Zm-2.365-.9551c-.637-.6376-.955-1.4042-.955-2.3649h-2c0 1.4713.514 2.7527 1.541 3.7791l1.414-1.4142Zm-.955-2.3649v-62.304h-2v62.304h2Zm0-62.304c0-.9607.318-1.7273.955-2.3649l-1.414-1.4142c-1.027 1.0264-1.541 2.3078-1.541 3.7791h2Zm.981-2.3915c.644-.6935 1.403-1.0245 2.339-1.0245v-2c-1.496 0-2.785.5651-3.805 1.6636l1.466 1.3609Zm2.339-1.0245c1.04 0 1.834.3281 2.461.9551l1.414-1.4142c-1.037-1.0369-2.355-1.5409-3.875-1.5409v2Zm2.461.9551c.627.6271.955 1.4205.955 2.4609h2c0-1.5195-.504-2.8381-1.541-3.8751l-1.414 1.4142Zm.955 2.4609v62.304h2v-62.304h-2Zm0 62.304c0 .9362-.331 1.6952-1.024 2.3392l1.36 1.4656c1.099-1.02 1.664-2.309 1.664-3.8048h-2Zm-1.051 2.3649c-.638.6376-1.404.9551-2.365.9551v2.0004c1.471 0 2.753-.515 3.779-1.5413l-1.414-1.4142Zm19.813-4.1889-.717.6968.005.0052.005.0051.707-.7071Zm3.648-40.704.565.825-.565-.825Zm25.056-.192-.544.8392.011.0071.533-.8463Zm7.872 8.832-.9.4348.003.0061.897-.4409Zm1.44 15.072-.707-.7071-.014.0141-.014.0147.735.6783Zm-35.712 1.248v-1h-1.121l.128 1.1136.993-.1136Zm4.992 10.464-.663.7484.663-.7484Zm18.816 2.976-.242-.9702-.008.0019.25.9683Zm5.952-2.208-.447-.8944.447.8944Zm3.072 6.912.492.871.008-.0048-.5-.8662Zm-7.392 3.168.278.9604-.278-.9604Zm2.88-28.416v1h1.063l-.065-1.0611-.998.0611Zm-2.496-7.872-.832.5547.006.0086.006.0085.82-.5718Zm-5.28-4.608-.436.8998.011.0054.011.0052.414-.9104Zm-12.864 0 .414.9104.011-.0052.012-.0054-.437-.8998Zm-5.28 4.608.832.5547-.832-.5547Zm-2.4 7.872-.998-.0611-.065 1.0611h1.063v-1Zm16.032 28.472c-7.613 0-13.445-2.147-17.629-6.3311l-1.414 1.4142c4.648 4.6479 11.04 6.9173 19.043 6.9173v-2.0004Zm-17.618-6.3208c-4.123-4.2436-6.246-10.2366-6.246-18.1192h-2c0 8.2454 2.229 14.7964 6.811 19.5128l1.435-1.3936Zm-6.246-18.1192c0-4.4191.809-8.4743 2.414-12.1784l-1.835-.7952c-1.723 3.9759-2.579 8.3047-2.579 12.9736h2Zm2.414-12.1784c1.589-3.667 4.027-6.623 7.327-8.8846l-1.13-1.6499c-3.611 2.4743-6.293 5.7263-8.032 9.7393l1.835.7952Zm7.327-8.8846c3.258-2.2322 7.307-3.377 12.203-3.377v-2c-5.215 0-9.679 1.2232-13.333 3.7271l1.13 1.6499Zm12.203-3.377c4.573 0 8.474 1.0792 11.744 3.1992l1.088-1.6783c-3.641-2.3601-7.932-3.5209-12.832-3.5209v2Zm11.755 3.2063c3.296 2.075 5.793 4.8757 7.505 8.4205l1.801-.8695c-1.873-3.8793-4.624-6.9666-8.24-9.2435l-1.066 1.6925Zm7.508 8.4266c1.72 3.5012 2.585 7.3489 2.585 11.5591h2c0-4.4938-.926-8.6461-2.79-12.4409l-1.795.8818Zm2.585 11.5591c0 .9607-.317 1.7273-.955 2.3649l1.414 1.4142c1.027-1.0264 1.541-2.3078 1.541-3.7791h-2Zm-.983 2.3937c-.543.5887-1.311.9263-2.433.9263v2c1.567 0 2.91-.4943 3.903-1.5697l-1.47-1.3566Zm-2.433.9263H198.07v2h32.544v-2Zm-33.537 1.1136c.534 4.6738 2.286 8.4079 5.322 11.0988l1.327-1.4967c-2.597-2.3012-4.172-5.5431-4.662-9.8292l-1.987.2271Zm5.322 11.0988c3.054 2.7068 7.256 3.9956 12.471 3.9956v-2c-4.896 0-8.566-1.2071-11.144-3.4923l-1.327 1.4967Zm12.471 3.9956c2.748 0 5.172-.2613 7.258-.7997l-.5-1.9366c-1.881.4856-4.129.7363-6.758.7363v2Zm7.251-.7978c2.12-.53 4.172-1.2917 6.156-2.2838l-.894-1.7888c-1.856.9279-3.771 1.6383-5.747 2.1323l.485 1.9403Zm6.156-2.2838c.358-.1787.778-.2784 1.281-.2784v-2c-.776 0-1.508.1563-2.175.4896l.894 1.7888Zm1.281-.2784c.769 0 1.425.255 2.013.7932l1.351-1.4743c-.949-.8698-2.085-1.3189-3.364-1.3189v2Zm2.013.7932c.551.5053.827 1.1291.827 1.9508h2c0-1.3543-.491-2.5224-1.476-3.4251l-1.351 1.4743Zm.827 1.9508c0 .9246-.514 1.831-1.995 2.6858l.999 1.7324c1.846-1.0651 2.996-2.5268 2.996-4.4182h-2Zm-1.987 2.681c-2.437 1.3749-4.83 2.3986-7.179 3.0785l.556 1.9209c2.516-.7279 5.051-1.8163 7.606-3.2574l-.983-1.742Zm-7.179 3.0785c-2.308.668-5.341 1.0165-9.13 1.0165v2.0004c3.891 0 7.13-.356 9.686-1.096l-.556-1.9209Zm4.156-27.5166c-.2-3.2789-1.075-6.0899-2.673-8.3827l-1.641 1.1436c1.346 1.9312 2.135 4.3682 2.318 7.3613l1.996-.1222Zm-2.662-8.3656c-1.501-2.2521-3.4-3.9192-5.698-4.9636l-.828 1.8207c1.927.8756 3.548 2.2804 4.862 4.2523l1.664-1.1094Zm-5.675-4.9531c-2.238-1.0846-4.53-1.6362-6.869-1.6362v2c2.013 0 4.009.4725 5.996 1.4358l.873-1.7996Zm-6.869-1.6362c-2.339 0-4.631.5516-6.868 1.6362l.873 1.7996c1.986-.9633 3.982-1.4358 5.995-1.4358v-2Zm-6.846 1.6257c-2.297 1.0444-4.196 2.7115-5.698 4.9636l1.664 1.1094c1.315-1.9719 2.936-3.3767 4.862-4.2523l-.828-1.8207Zm-5.698 4.9636c-1.527 2.2902-2.366 5.0949-2.566 8.3656l1.996.1222c.184-3.0012.945-5.4445 2.234-7.3784l-1.664-1.1094Zm-1.568 9.4267h28.32v-2h-28.32v2Zm61.299 27.032-.592.8064.018.013.019.013.555-.8324Zm-2.112-2.592-.923.3859.003.0075.003.0074.917-.4008Zm-16.704-39.936-.924.3846.001.0013.923-.3859Zm.768-5.088.707.7071.013-.0131.012-.0135-.732-.6805Zm5.376-.576-.589.8088.041.0296.044.0254.504-.8638Zm1.632 1.728.93-.3668-.01-.0238-.01-.0232-.91.4138Zm14.688 37.248-.931.3669.931 2.3591.93-2.3591-.93-.3669Zm14.688-37.248-.911-.4138-.01.0232-.01.0238.931.3668Zm1.536-1.728.536.8437.009-.0057.009-.0059-.554-.8321Zm5.472.576-.733.6805.012.0135.013.0131.708-.7071Zm.768 5.088.922.3859.001-.0013-.923-.3846Zm-16.704 39.936.916.4008.003-.0074.003-.0075-.922-.3859Zm-2.112 2.592.554.8324.019-.013.018-.013-.591-.8064Zm-4.128-.04c-.955 0-1.818-.2614-2.614-.792l-1.109 1.6644c1.124.749 2.373 1.128 3.723 1.128v-2.0004Zm-2.577-.7664c-.828-.6068-1.415-1.3344-1.787-2.1864l-1.833.8016c.524 1.196 1.345 2.1964 2.437 2.9976l1.183-1.6128Zm-1.781-2.1715-16.704-39.936-1.845.7718 16.704 39.936 1.845-.7718ZM241.476 56.284c-.29-.6959-.403-1.2323-.403-1.6314h-2c0 .753.206 1.5605.556 2.4006l1.847-.7692Zm-.403-1.6314c0-.9607.317-1.7273.955-2.3649l-1.415-1.4142c-1.026 1.0264-1.54 2.3078-1.54 3.7791h2Zm.98-2.3915c.644-.6935 1.403-1.0245 2.34-1.0245v-2c-1.496 0-2.785.5651-3.805 1.6636l1.465 1.3609Zm2.34-1.0245c.61 0 1.174.1829 1.715.5768l1.177-1.6175c-.867-.6302-1.839-.9593-2.892-.9593v2Zm1.8.6318c.617.3599 1.003.7897 1.225 1.278l1.821-.8276c-.418-.9197-1.12-1.6418-2.039-2.178l-1.007 1.7276Zm1.205 1.2311 14.688 37.248 1.861-.7337-14.688-37.248-1.861.7337Zm16.549 37.248 14.688-37.248-1.861-.7337-14.688 37.248 1.861.7337Zm14.668-37.2011c.233-.5135.608-.9456 1.162-1.2981l-1.073-1.6873c-.854.5434-1.503 1.2633-1.91 2.1578l1.821.8276Zm1.18-1.3097c.623-.415 1.232-.6001 1.846-.6001v-2c-1.051 0-2.042.3269-2.955.936l1.109 1.6641Zm1.846-.6001c.936 0 1.695.331 2.339 1.0245l1.465-1.3609c-1.02-1.0985-2.309-1.6636-3.804-1.6636v2Zm2.364 1.0511c.638.6376.956 1.4042.956 2.3649h2c0-1.4713-.515-2.7527-1.541-3.7791l-1.415 1.4142Zm.956 2.3649c0 .3991-.114.9355-.404 1.6314l1.847.7692c.35-.8401.557-1.6476.557-2.4006h-2Zm-.403 1.6301-16.704 39.936 1.845.7718 16.704-39.936-1.845-.7718ZM267.86 96.2038c-.372.852-.959 1.5796-1.787 2.1864l1.183 1.6128c1.092-.8012 1.913-1.8015 2.437-2.9976l-1.833-.8016Zm-1.75 2.1608c-.796.5306-1.659.792-2.613.792v2.0004c1.349 0 2.598-.379 3.722-1.128l-1.109-1.6644Zm-2.613.792h-.96v2.0004h.96v-2.0004Zm34.506-5.144-.718.6968.005.0052.005.0051.708-.7071Zm3.648-40.704.565.825-.565-.825Zm25.056-.192-.544.8392.011.0071.533-.8463Zm7.872 8.832-.901.4348.003.0061.898-.4409Zm1.44 15.072-.708-.7071-.014.0141-.013.0147.735.6783Zm-35.712 1.248v-1h-1.121l.127 1.1136.994-.1136Zm4.992 10.464-.664.7484.664-.7484Zm18.816 2.976-.243-.9702-.007.0019.25.9683Zm5.952-2.208-.448-.8944.448.8944Zm3.072 6.912.491.871.008-.0048-.499-.8662Zm-7.392 3.168.278.9604-.278-.9604Zm2.88-28.416v1h1.063l-.065-1.0611-.998.0611Zm-2.496-7.872-.833.5547.006.0086.006.0085.821-.5718Zm-5.28-4.608-.437.8998.011.0054.012.0052.414-.9104Zm-12.864 0 .413.9104.012-.0052.011-.0054-.436-.8998Zm-5.28 4.608.832.5547-.832-.5547Zm-2.4 7.872-.999-.0611-.065 1.0611h1.064v-1Zm16.032 28.472c-7.613 0-13.445-2.147-17.629-6.3311l-1.415 1.4142c4.648 4.6479 11.04 6.9173 19.044 6.9173v-2.0004Zm-17.619-6.3208c-4.123-4.2436-6.245-10.2366-6.245-18.1192h-2c0 8.2454 2.229 14.7964 6.81 19.5128l1.435-1.3936Zm-6.245-18.1192c0-4.4191.808-8.4743 2.413-12.1784l-1.835-.7952c-1.723 3.9759-2.578 8.3047-2.578 12.9736h2Zm2.413-12.1784c1.589-3.667 4.027-6.623 7.328-8.8846l-1.131-1.6499c-3.611 2.4743-6.293 5.7263-8.032 9.7393l1.835.7952Zm7.328-8.8846c3.257-2.2322 7.306-3.377 12.203-3.377v-2c-5.216 0-9.679 1.2232-13.334 3.7271l1.131 1.6499Zm12.203-3.377c4.572 0 8.473 1.0792 11.744 3.1992l1.087-1.6783c-3.641-2.3601-7.932-3.5209-12.831-3.5209v2Zm11.755 3.2063c3.295 2.075 5.793 4.8757 7.504 8.4205l1.801-.8695c-1.873-3.8793-4.623-6.9666-8.24-9.2435l-1.065 1.6925Zm7.507 8.4266c1.72 3.5012 2.586 7.3489 2.586 11.5591h2c0-4.4938-.927-8.6461-2.791-12.4409l-1.795.8818Zm2.586 11.5591c0 .9607-.318 1.7273-.956 2.3649l1.415 1.4142c1.026-1.0264 1.541-2.3078 1.541-3.7791h-2Zm-.983 2.3937c-.544.5887-1.312.9263-2.433.9263v2c1.566 0 2.91-.4943 3.902-1.5697l-1.469-1.3566Zm-2.433.9263h-32.544v2h32.544v-2Zm-33.538 1.1136c.534 4.6738 2.286 8.4079 5.322 11.0988l1.327-1.4967c-2.596-2.3012-4.172-5.5431-4.662-9.8292l-1.987.2271Zm5.322 11.0988c3.054 2.7068 7.256 3.9956 12.472 3.9956v-2c-4.897 0-8.567-1.2071-11.145-3.4923l-1.327 1.4967Zm12.472 3.9956c2.747 0 5.171-.2613 7.257-.7997l-.499-1.9366c-1.882.4856-4.13.7363-6.758.7363v2Zm7.25-.7978c2.12-.53 4.173-1.2917 6.157-2.2838l-.895-1.7888c-1.856.9279-3.771 1.6383-5.747 2.1323l.485 1.9403Zm6.157-2.2838c.357-.1787.777-.2784 1.281-.2784v-2c-.777 0-1.509.1563-2.176.4896l.895 1.7888Zm1.281-.2784c.769 0 1.425.255 2.012.7932l1.351-1.4743c-.949-.8698-2.085-1.3189-3.363-1.3189v2Zm2.012.7932c.551.5053.828 1.1291.828 1.9508h2c0-1.3543-.492-2.5224-1.477-3.4251l-1.351 1.4743Zm.828 1.9508c0 .9246-.514 1.831-1.996 2.6858l.999 1.7324c1.846-1.0651 2.997-2.5268 2.997-4.4182h-2Zm-1.988 2.681c-2.437 1.3749-4.83 2.3986-7.179 3.0785l.557 1.9209c2.515-.7279 5.05-1.8163 7.605-3.2574l-.983-1.742Zm-7.179 3.0785c-2.307.668-5.34 1.0165-9.129 1.0165v2.0004c3.89 0 7.129-.356 9.686-1.096l-.557-1.9209Zm4.157-27.5166c-.201-3.2789-1.076-6.0899-2.674-8.3827l-1.641 1.1436c1.346 1.9312 2.135 4.3682 2.318 7.3613l1.997-.1222Zm-2.662-8.3656c-1.502-2.2521-3.401-3.9192-5.699-4.9636l-.827 1.8207c1.926.8756 3.547 2.2804 4.861 4.2523l1.665-1.1094Zm-5.676-4.9531c-2.237-1.0846-4.53-1.6362-6.868-1.6362v2c2.013 0 4.008.4725 5.995 1.4358l.873-1.7996Zm-6.868-1.6362c-2.339 0-4.632.5516-6.869 1.6362l.873 1.7996c1.987-.9633 3.982-1.4358 5.996-1.4358v-2Zm-6.846 1.6257c-2.298 1.0444-4.197 2.7115-5.699 4.9636l1.665 1.1094c1.314-1.9719 2.935-3.3767 4.861-4.2523l-.827-1.8207Zm-5.699 4.9636c-1.526 2.2902-2.365 5.0949-2.566 8.3656l1.997.1222c.183-3.0012.944-5.4445 2.234-7.3784l-1.665-1.1094Zm-1.567 9.4267h28.32v-2h-28.32v2Zm48.807 26.744.707-.7071-.707.7071Zm0-68.448.707.7071.013-.0131.012-.0135-.732-.6805Zm6.24-.096.707-.7071-.707.7071Zm-.096 68.544-.681-.7328-.014.0126-.013.0131.708.7071Zm-3.072.248c-.961 0-1.728-.3175-2.365-.9551l-1.415 1.4142c1.027 1.0263 2.308 1.5413 3.78 1.5413v-2.0004Zm-2.365-.9551c-.638-.6376-.955-1.4042-.955-2.3649h-2c0 1.4713.514 2.7527 1.54 3.7791l1.415-1.4142Zm-.955-2.3649v-62.304h-2v62.304h2Zm0-62.304c0-.9607.317-1.7273.955-2.3649l-1.415-1.4142c-1.026 1.0264-1.54 2.3078-1.54 3.7791h2Zm.98-2.3915c.644-.6935 1.403-1.0245 2.34-1.0245v-2c-1.496 0-2.785.5651-3.805 1.6636l1.465 1.3609Zm2.34-1.0245c1.04 0 1.833.3281 2.46.9551l1.415-1.4142c-1.037-1.0369-2.356-1.5409-3.875-1.5409v2Zm2.46.9551c.627.6271.956 1.4205.956 2.4609h2c0-1.5195-.504-2.8381-1.541-3.8751l-1.415 1.4142Zm.956 2.4609v62.304h2v-62.304h-2Zm0 62.304c0 .9362-.331 1.6952-1.025 2.3392l1.361 1.4656c1.098-1.02 1.664-2.309 1.664-3.8048h-2Zm-1.052 2.3649c-.637.6376-1.404.9551-2.364.9551v2.0004c1.471 0 2.752-.515 3.779-1.5413l-1.415-1.4142ZM388.424 100.96c-6.4 0-12.224-1.44-17.472-4.32-1.088-.768-1.632-1.824-1.632-3.168 0-1.024.352-1.92 1.056-2.688.704-.768 1.6-1.152 2.688-1.152.576 0 1.152.128 1.728.384 2.048.896 4.096 1.6 6.144 2.112s4.352.768 6.912.768c7.104 0 10.656-2.272 10.656-6.816 0-1.472-.832-2.592-2.496-3.36-1.6-.768-4.256-1.632-7.968-2.592-3.776-.896-6.912-1.824-9.408-2.784-2.432-.96-4.544-2.4-6.336-4.32-1.728-1.984-2.592-4.576-2.592-7.776 0-4.48 1.6-8.128 4.8-10.944 3.264-2.816 7.904-4.224 13.92-4.224 4.928 0 9.568.8 13.92 2.4.896.256 1.568.736 2.016 1.44.512.704.768 1.44.768 2.208 0 1.024-.384 1.92-1.152 2.688-.704.768-1.6 1.152-2.688 1.152-.32 0-.736-.064-1.248-.192-3.712-1.152-7.36-1.728-10.944-1.728-3.456 0-6.176.64-8.16 1.92-1.92 1.216-2.88 2.816-2.88 4.8 0 1.92.896 3.328 2.688 4.224 1.792.896 4.576 1.76 8.352 2.592 3.776.96 6.848 1.92 9.216 2.88 2.368.896 4.384 2.336 6.048 4.32 1.728 1.984 2.592 4.64 2.592 7.968 0 4.096-1.632 7.488-4.896 10.176-3.2 2.688-7.744 4.032-13.632 4.032Z"/><path fill="gray" d="m370.952 96.64-.577.817.046.0325.05.0272.481-.8767Zm-.576-5.856.737.6757-.737-.6757Zm4.416-.768-.406.9138.005.0024.401-.9162Zm21.216-7.296-.433.9015.007.0033.007.0032.419-.908Zm-7.968-2.592.25-.9681-.009-.0026-.01-.0023-.231.973Zm-9.408-2.784-.367.9302.008.0031.359-.9333Zm-6.336-4.32-.754.6568.011.0129.012.0126.731-.6823Zm2.208-18.72-.653-.7572-.008.0065.661.7507Zm27.84-1.824-.345.9386.035.0127.035.0102.275-.9615Zm2.016 1.44-.844.5369.017.0262.018.0251.809-.5882Zm-.384 4.896-.707-.7071-.015.0154-.015.016.737.6757Zm-3.936.96-.296.9551.026.0083.027.0067.243-.9701Zm-19.104.192.535.8448.007-.0045-.542-.8403Zm8.16 11.616.246-.9692-.015-.0039-.016-.0035-.215.9766Zm9.216 2.88-.376.9267.011.0044.011.0042.354-.9353Zm6.048 4.32-.766.6426.006.0072.006.007.754-.6568Zm-2.304 18.144-.636-.772-.007.0063.643.7657Zm-13.632 3.032c-6.244 0-11.901-1.4032-16.991-4.1967l-.962 1.7534c5.406 2.9663 11.397 4.4433 17.953 4.4433v-2Zm-16.895-4.137c-.82-.5785-1.209-1.3284-1.209-2.351h-2c0 1.6654.699 3.0275 2.055 3.985l1.154-1.634Zm-1.209-2.351c0-.769.255-1.4251.793-2.0123l-1.474-1.3514c-.87.9488-1.319 2.0847-1.319 3.3637h2Zm.793-2.0123c.505-.5512 1.129-.8277 1.951-.8277v-2c-1.354 0-2.522.4915-3.425 1.4763l1.474 1.3514Zm1.951-.8277c.423 0 .862.0932 1.322.2978l.812-1.8276c-.692-.3074-1.405-.4702-2.134-.4702v2Zm1.327.3002c2.096.917 4.197 1.6396 6.302 2.1659l.486-1.9402c-1.991-.4977-3.986-1.1831-5.986-2.0581l-.802 1.8324Zm6.302 2.1659c2.142.5355 4.53.7979 7.155.7979v-2c-2.495 0-4.715-.2496-6.669-.7381l-.486 1.9402Zm7.155.7979c3.626 0 6.518-.5741 8.531-1.8616 2.089-1.3362 3.125-3.373 3.125-5.9544h-2c0 1.9626-.74 3.3338-2.203 4.2696-1.539.9845-3.975 1.5464-7.453 1.5464v2Zm11.656-7.816c0-.9382-.27-1.798-.821-2.5403-.542-.7299-1.318-1.2948-2.256-1.7277l-.838 1.816c.726.3351 1.198.7142 1.488 1.1043.281.3777.427.8139.427 1.3477h2Zm-3.063-4.2615c-1.694-.813-4.431-1.6966-8.151-2.6586l-.5 1.9362c3.704.958 6.279 1.8024 7.785 2.5254l.866-1.803Zm-8.17-2.6635c-3.75-.8898-6.84-1.8058-9.28-2.7443l-.718 1.8666c2.552.9815 5.734 1.9215 9.536 2.8237l.462-1.946Zm-9.272-2.7412c-2.293-.9052-4.281-2.2602-5.972-4.0721l-1.462 1.3646c1.893 2.0281 4.129 3.553 6.7 4.5679l.734-1.8604Zm-5.949-4.0466c-1.537-1.7646-2.346-4.1061-2.346-7.1192h-2c0 3.3869.919 6.2294 2.838 8.4328l1.508-1.3136Zm-2.346-7.1192c0-4.2093 1.489-7.5779 4.461-10.1933l-1.322-1.5014c-3.428 3.0166-5.139 6.944-5.139 11.6947h2Zm4.453-10.1868c3.022-2.6072 7.396-3.9812 13.267-3.9812v-2c-6.161 0-11.067 1.4419-14.573 4.4668l1.306 1.5144Zm13.267-3.9812c4.818 0 9.34.7817 13.575 2.3386l.69-1.8772c-4.469-1.6431-9.227-2.4614-14.265-2.4614v2Zm13.645 2.3615c.691.1972 1.146.5422 1.447 1.0154l1.688-1.0738c-.595-.9348-1.484-1.5499-2.585-1.8646l-.55 1.923Zm1.482 1.0667c.405.5568.577 1.0908.577 1.6198h2c0-1.007-.34-1.945-.959-2.7962l-1.618 1.1764Zm.577 1.6198c0 .7414-.266 1.3878-.859 1.9809l1.414 1.4142c.943-.9429 1.445-2.0885 1.445-3.3951h-2Zm-.889 2.0123c-.505.5512-1.129.8277-1.951.8277v2c1.354 0 2.522-.4915 3.425-1.4763l-1.474-1.3514Zm-1.951.8277c-.203 0-.529-.0429-1.005-.1621l-.486 1.9402c.548.1368 1.054.2219 1.491.2219v-2Zm-.952-.1471c-3.8-1.1792-7.547-1.7729-11.24-1.7729v2c3.475 0 7.024.5583 10.648 1.6831l.592-1.9102Zm-11.24-1.7729c-3.564 0-6.498.6577-8.702 2.0797l1.084 1.6806c1.764-1.138 4.27-1.7603 7.618-1.7603v-2Zm-8.695 2.0752c-2.16 1.3679-3.345 3.2633-3.345 5.6448h2c0-1.5865.735-2.8911 2.415-3.9552l-1.07-1.6896Zm-3.345 5.6448c0 1.1209.264 2.1454.828 3.0329.564.885 1.387 1.5728 2.413 2.0855l.894-1.7888c-.766-.3833-1.287-.8475-1.619-1.3705-.332-.5205-.516-1.16-.516-1.9591h-2Zm3.241 5.1184c1.905.9527 4.787 1.8376 8.584 2.6742l.43-1.9532c-3.755-.8274-6.441-1.6705-8.12-2.5098l-.894 1.7888Zm8.553 2.6668c3.752.9539 6.776 1.901 9.086 2.8375l.752-1.8534c-2.426-.9835-5.546-1.9564-9.346-2.9225l-.492 1.9384Zm9.108 2.8461c2.204.8339 4.079 2.1715 5.636 4.0273l1.532-1.2852c-1.771-2.1122-3.928-3.6546-6.46-4.6127l-.708 1.8706Zm5.648 4.0415c1.531 1.7577 2.346 4.1587 2.346 7.3112h2c0-3.5035-.913-6.4145-2.838-8.6248l-1.508 1.3136Zm2.346 7.3112c0 3.7862-1.49 6.8989-4.532 9.4041l1.272 1.5438c3.486-2.8708 5.26-6.5421 5.26-10.9479h-2Zm-4.539 9.4103c-2.959 2.4851-7.241 3.7977-12.989 3.7977v2c6.028 0 10.834-1.375 14.275-4.2663l-1.286-1.5314ZM422 100.288c-1.472 0-2.752-.512-3.84-1.536-1.024-1.088-1.536-2.368-1.536-3.84v-.576c0-1.472.512-2.72 1.536-3.744 1.088-1.088 2.368-1.632 3.84-1.632h.96c1.472 0 2.72.544 3.744 1.632 1.088 1.024 1.632 2.272 1.632 3.744v.576c0 1.472-.544 2.752-1.632 3.84-1.024 1.024-2.272 1.536-3.744 1.536H422Z"/><path fill="gray" d="m418.16 98.752-.728.6854.021.022.022.0208.685-.7282Zm0-8.16-.707-.7071.707.7071Zm8.544 0-.728.6854.021.022.022.0208.685-.7282Zm0 8.16-.707-.7071.707.7071Zm-4.704.536c-1.213 0-2.249-.4119-3.155-1.2642l-1.37 1.4564c1.27 1.1958 2.794 1.8078 4.525 1.8078v-2Zm-3.112-1.2214c-.852-.9056-1.264-1.9416-1.264-3.1546h-2c0 1.731.612 3.255 1.808 4.5254l1.456-1.3708Zm-1.264-3.1546v-.576h-2v.576h2Zm0-.576c0-1.2117.41-2.2039 1.243-3.0369l-1.414-1.4142c-1.215 1.215-1.829 2.7188-1.829 4.4511h2Zm1.243-3.0369c.91-.9099 1.939-1.3391 3.133-1.3391v-2c-1.75 0-3.281.6588-4.547 1.9249l1.414 1.4142ZM422 89.96h.96v-2H422v2Zm.96 0c1.192 0 2.178.4267 3.016 1.3174l1.456-1.3708c-1.21-1.2853-2.72-1.9466-4.472-1.9466v2Zm3.059 1.3602c.89.8382 1.317 1.8242 1.317 3.0158h2c0-1.7524-.661-3.2624-1.947-4.4722l-1.37 1.4564Zm1.317 3.0158v.576h2v-.576h-2Zm0 .576c0 1.1937-.429 2.223-1.339 3.1329l1.414 1.4142c1.266-1.2661 1.925-2.7968 1.925-4.5471h-2Zm-1.339 3.1329c-.833.833-1.825 1.2431-3.037 1.2431v2c1.732 0 3.236-.614 4.451-1.8289l-1.414-1.4142Zm-3.037 1.2431H422v2h.96v-2ZM445.552 100.48c-1.216 0-2.24-.416-3.072-1.248-.832-.832-1.248-1.856-1.248-3.072V58.528h-5.664c-1.024 0-1.92-.352-2.688-1.056-.704-.768-1.056-1.664-1.056-2.688 0-1.088.352-1.984 1.056-2.688.768-.704 1.664-1.056 2.688-1.056h5.664v-5.568c0-3.84.672-6.976 2.016-9.408 1.408-2.496 3.2-4.288 5.376-5.376 2.24-1.152 4.576-1.728 7.008-1.728 3.008 0 5.792.64 8.352 1.92.64.32 1.152.8 1.536 1.44.448.576.672 1.216.672 1.92 0 .96-.352 1.824-1.056 2.592-.704.704-1.536 1.056-2.496 1.056-.704 0-1.44-.096-2.208-.288-1.536-.192-2.4-.288-2.592-.288-2.624 0-4.608.608-5.952 1.824-1.28 1.216-1.92 3.424-1.92 6.624v5.28h12c1.088 0 1.984.352 2.688 1.056.704.704 1.056 1.6 1.056 2.688 0 1.024-.352 1.92-1.056 2.688-.704.704-1.6 1.056-2.688 1.056h-12V96.16c0 1.216-.448 2.24-1.344 3.072-.832.832-1.856 1.248-3.072 1.248Z"/><path fill="gray" d="m442.48 99.232.707-.7071-.707.7071Zm-1.248-40.704h1v-1h-1v1Zm-8.352-1.056-.737.6757.029.0321.032.0294.676-.7372Zm0-5.376-.676-.7372-.016.0147-.015.0154.707.7071Zm8.352-1.056v1h1v-1h-1Zm2.016-14.976-.871-.4913-.004.0076.875.4837Zm5.376-5.376.447.8945.01-.0052-.457-.8893Zm15.36.192-.447.8944.447-.8944Zm1.536 1.44-.857.5145.031.0518.037.0476.789-.6139Zm-.384 4.512.707.7071.015-.0154.015-.016-.737-.6757Zm-4.704.768.243-.9701-.059-.0147-.06-.0075-.124.9923Zm-8.544 1.536-.671-.7415-.009.0081-.009.0084.689.725Zm-1.92 11.904h-1v1h1v-1Zm14.688 1.056-.707.7071.707-.7071Zm0 5.376.707.7071.015-.0154.015-.016-.737-.6757Zm-14.688 1.056v-1h-1v1h1Zm-1.344 40.704-.68-.7328-.014.0126-.013.0131.707.7071Zm-3.072.248c-.961 0-1.727-.3175-2.365-.9551l-1.414 1.4142c1.026 1.0269 2.308 1.5409 3.779 1.5409v-2Zm-2.365-.9551c-.637-.6376-.955-1.4042-.955-2.3649h-2c0 1.4713.514 2.7527 1.541 3.7791l1.414-1.4142Zm-.955-2.3649V58.528h-2V96.16h2Zm-1-38.632h-5.664v2h5.664v-2Zm-5.664 0c-.769 0-1.425-.255-2.012-.7932l-1.352 1.4744c.949.8698 2.085 1.3188 3.364 1.3188v-2Zm-1.951-.7317c-.538-.5872-.793-1.2433-.793-2.0123h-2c0 1.279.449 2.4149 1.319 3.3637l1.474-1.3514Zm-.793-2.0123c0-.8499.265-1.4828.763-1.9809l-1.414-1.4142c-.91.9099-1.349 2.069-1.349 3.3951h2Zm.732-1.9508c.587-.5383 1.243-.7932 2.012-.7932v-2c-1.279 0-2.415.449-3.364 1.3188l1.352 1.4744Zm2.012-.7932h5.664v-2h-5.664v2Zm6.664-1v-5.568h-2v5.568h2Zm0-5.568c0-3.7323.654-6.6862 1.891-8.9243l-1.75-.9674c-1.451 2.6259-2.141 5.944-2.141 9.8917h2Zm1.887-8.9167c1.328-2.354 2.984-3.989 4.952-4.9729l-.894-1.7888c-2.384 1.192-4.312 3.141-5.8 5.7791l1.742.9826Zm4.962-4.978c2.104-1.0819 4.284-1.6173 6.551-1.6173v-2c-2.597 0-5.089.6166-7.465 1.8387l.914 1.7786Zm6.551-1.6173c2.861 0 5.491.6074 7.905 1.8144l.894-1.7888c-2.706-1.353-5.644-2.0256-8.799-2.0256v2Zm7.905 1.8144c.462.2312.835.5758 1.126 1.0601l1.714-1.029c-.477-.7957-1.128-1.4111-1.946-1.8199l-.894 1.7888Zm1.194 1.1595c.316.4074.461.8331.461 1.3061h2c0-.935-.303-1.7893-.883-2.5339l-1.578 1.2278Zm.461 1.3061c0 .6875-.243 1.3156-.793 1.9163l1.474 1.3514c.858-.9353 1.319-2.0352 1.319-3.2677h-2Zm-.763 1.8849c-.524.5242-1.105.7631-1.789.7631v2c1.236 0 2.319-.4651 3.203-1.3489l-1.414-1.4142Zm-1.789.7631c-.613 0-1.267-.0836-1.965-.2581l-.486 1.9402c.838.2095 1.656.3179 2.451.3179v-2Zm-2.084-.2803c-.77-.0962-1.375-.1688-1.814-.2176-.406-.0452-.737-.0781-.902-.0781v2c-.004 0 .043.0015.179.0139.123.0111.29.0283.503.052.425.0472 1.02.1186 1.786.2144l.248-1.9846Zm-2.716-.2957c-2.762 0-5.027.6389-6.623 2.0825l1.342 1.483c1.092-.9884 2.795-1.5655 5.281-1.5655v-2Zm-6.641 2.099c-1.589 1.5101-2.231 4.0792-2.231 7.349h2c0-3.1302.638-4.9771 1.609-5.899l-1.378-1.45Zm-2.231 7.349v5.28h2v-5.28h-2Zm1 6.28h12v-2h-12v2Zm12 0c.85 0 1.483.265 1.981.7631l1.414-1.4142c-.91-.9099-2.069-1.3489-3.395-1.3489v2Zm1.981.7631c.498.4981.763 1.131.763 1.9809h2c0-1.3261-.439-2.4852-1.349-3.3951l-1.414 1.4142Zm.763 1.9809c0 .769-.255 1.4251-.793 2.0123l1.474 1.3514c.87-.9488 1.319-2.0847 1.319-3.3637h-2Zm-.763 1.9809c-.498.4981-1.131.7631-1.981.7631v2c1.326 0 2.485-.439 3.395-1.3489l-1.414-1.4142Zm-1.981.7631h-12v2h12v-2Zm-13 1V96.16h2V58.528h-2Zm0 37.632c0 .9362-.331 1.6952-1.024 2.3392l1.36 1.4656c1.099-1.02 1.664-2.309 1.664-3.8048h-2Zm-1.051 2.3649c-.638.6376-1.404.9551-2.365.9551v2c1.471 0 2.753-.514 3.779-1.5409l-1.414-1.4142ZM489.528 122.56c-1.152 0-2.144-.416-2.976-1.248-.768-.832-1.152-1.824-1.152-2.976 0-.512.096-1.024.288-1.536l6.24-16.032L473.88 56.8c-.256-.64-.384-1.248-.384-1.824 0-1.216.416-2.24 1.248-3.072.832-.896 1.856-1.344 3.072-1.344.896 0 1.696.256 2.4.768.768.512 1.312 1.152 1.632 1.92l14.784 36.672 15.072-36.48c.832-1.92 2.176-2.88 4.032-2.88 1.216 0 2.24.448 3.072 1.344.832.832 1.248 1.856 1.248 3.072 0 .576-.096 1.12-.288 1.632l-26.208 62.976c-.896 1.984-2.24 2.976-4.032 2.976Z"/><path fill="gray" d="m486.552 121.312-.735.678.014.015.014.014.707-.707Zm-.864-4.512-.932-.363-.004.012.936.351Zm6.24-16.032.932.363.145-.373-.152-.37-.925.38ZM473.88 56.8l-.929.3714.004.0083.925-.3797Zm.864-4.896.707.7071.013-.0131.013-.0136-.733-.6804Zm5.472-.576-.588.8087.016.012.017.0113.555-.832Zm1.632 1.92.928-.3739-.005-.0107-.923.3846Zm14.784 36.672-.927.3739.916 2.2724.935-2.2644-.924-.3819Zm15.072-36.48-.918-.3976-.003.0078-.003.0079.924.3819Zm7.104-1.536-.733.6804.013.0136.013.0131.707-.7071Zm.96 4.704.923.3842.007-.0164.006-.0167-.936-.3511Zm-26.208 62.976.911.412.007-.014.005-.014-.923-.384Zm-4.032 1.976c-.88 0-1.62-.306-2.269-.955l-1.414 1.414c1.015 1.015 2.259 1.541 3.683 1.541v-2Zm-2.241-.926c-.594-.644-.887-1.393-.887-2.298h-2c0 1.399.475 2.634 1.417 3.654l1.47-1.356Zm-.887-2.298c0-.384.072-.777.224-1.185l-1.872-.702c-.232.616-.352 1.247-.352 1.887h2Zm.22-1.173 6.24-16.032-1.864-.726-6.24 16.032 1.864.726Zm6.233-16.775-18.048-43.9677-1.85.7594 18.048 43.9683 1.85-.76Zm-18.045-43.9594c-.217-.5446-.312-1.0262-.312-1.4526h-2c0 .7256.161 1.46.456 2.1954l1.856-.7428Zm-.312-1.4526c0-.9607.318-1.7273.955-2.3649l-1.414-1.4142c-1.027 1.0264-1.541 2.3078-1.541 3.7791h2Zm.981-2.3916c.644-.6935 1.403-1.0244 2.339-1.0244v-2c-1.496 0-2.785.5651-3.805 1.6635l1.466 1.3609Zm2.339-1.0244c.691 0 1.284.1929 1.812.5767l1.176-1.6174c-.88-.6402-1.887-.9593-2.988-.9593v2Zm1.845.6c.623.415 1.028.9065 1.264 1.4726l1.846-.7692c-.404-.9699-1.087-1.7584-2-2.3675l-1.11 1.6641Zm1.26 1.4619 14.784 36.672 1.854-.7478-14.784-36.672-1.854.7478Zm16.635 36.68 15.072-36.4801-1.848-.7637-15.072 36.48 1.848.7638Zm15.066-36.4643c.362-.8372.806-1.3942 1.295-1.7439.482-.3441 1.073-.5337 1.819-.5337v-2c-1.11 0-2.119.2904-2.981.9063-.855.6103-1.499 1.4933-1.969 2.5761l1.836.7952Zm3.114-2.2776c.936 0 1.695.3309 2.339 1.0244l1.466-1.3609c-1.02-1.0984-2.309-1.6635-3.805-1.6635v2Zm2.365 1.0511c.637.6376.955 1.4042.955 2.3649h2c0-1.4713-.514-2.7527-1.541-3.7791l-1.414 1.4142Zm.955 2.3649c0 .4626-.077.8871-.224 1.2809l1.872.7022c.237-.6302.352-1.2937.352-1.9831h-2Zm-.211 1.2478L492.637 119.2l1.846.768 26.208-62.9758-1.846-.7684Zm-26.196 62.9482c-.399.882-.864 1.471-1.363 1.839-.487.36-1.059.549-1.758.549v2c1.093 0 2.089-.307 2.946-.939.845-.624 1.5-1.523 1.997-2.625l-1.822-.824ZM533.712 41.056c-1.344 0-2.496-.48-3.456-1.44s-1.44-2.112-1.44-3.456v-.384c0-1.344.48-2.496 1.44-3.456s2.112-1.44 3.456-1.44h.576c1.344 0 2.496.48 3.456 1.44s1.44 2.112 1.44 3.456v.384c0 1.344-.48 2.496-1.44 3.456s-2.112 1.44-3.456 1.44h-.576Zm.192 59.424c-1.216 0-2.24-.416-3.072-1.248-.832-.832-1.248-1.856-1.248-3.072V54.976c0-1.216.416-2.24 1.248-3.072.832-.896 1.856-1.344 3.072-1.344 1.28 0 2.336.416 3.168 1.248.832.832 1.248 1.888 1.248 3.168V96.16c0 1.216-.448 2.24-1.344 3.072-.832.832-1.856 1.248-3.072 1.248Z"/><path fill="gray" d="m530.256 39.616-.707.7071.707-.7071Zm7.488 0 .707.7071-.707-.7071Zm-6.912 59.616.707-.7071-.707.7071Zm0-47.328.707.7071.013-.0131.013-.0136-.733-.6804Zm6.144 47.328-.68-.7328-.014.0126-.013.0131.707.7071Zm-3.264-59.176c-1.076 0-1.974-.3725-2.749-1.1471l-1.414 1.4142c1.145 1.1454 2.551 1.7329 4.163 1.7329v-2Zm-2.749-1.1471c-.774-.7746-1.147-1.6731-1.147-2.7489h-2c0 1.6122.587 3.0177 1.733 4.1631l1.414-1.4142Zm-1.147-2.7489v-.384h-2v.384h2Zm0-.384c0-1.0758.373-1.9743 1.147-2.7489l-1.414-1.4142c-1.146 1.1454-1.733 2.5509-1.733 4.1631h2Zm1.147-2.7489c.775-.7746 1.673-1.1471 2.749-1.1471v-2c-1.612 0-3.018.5875-4.163 1.7329l1.414 1.4142Zm2.749-1.1471h.576v-2h-.576v2Zm.576 0c1.076 0 1.974.3725 2.749 1.1471l1.414-1.4142c-1.145-1.1454-2.551-1.7329-4.163-1.7329v2Zm2.749 1.1471c.774.7746 1.147 1.6731 1.147 2.7489h2c0-1.6122-.587-3.0177-1.733-4.1631l-1.414 1.4142Zm1.147 2.7489v.384h2v-.384h-2Zm0 .384c0 1.0758-.373 1.9743-1.147 2.7489l1.414 1.4142c1.146-1.1454 1.733-2.5509 1.733-4.1631h-2Zm-1.147 2.7489c-.775.7746-1.673 1.1471-2.749 1.1471v2c1.612 0 3.018-.5875 4.163-1.7329l-1.414-1.4142Zm-2.749 1.1471h-.576v2h.576v-2Zm-.384 59.424c-.961 0-1.727-.3175-2.365-.9551l-1.414 1.4142c1.026 1.0269 2.308 1.5409 3.779 1.5409v-2Zm-2.365-.9551c-.637-.6376-.955-1.4042-.955-2.3649h-2c0 1.4713.514 2.7527 1.541 3.7791l1.414-1.4142Zm-.955-2.3649V54.976h-2V96.16h2Zm0-41.184c0-.9607.318-1.7273.955-2.3649l-1.414-1.4142c-1.027 1.0264-1.541 2.3078-1.541 3.7791h2Zm.981-2.3916c.644-.6935 1.403-1.0244 2.339-1.0244v-2c-1.496 0-2.785.5651-3.805 1.6635l1.466 1.3609Zm2.339-1.0244c1.04 0 1.834.328 2.461.9551l1.414-1.4142c-1.037-1.037-2.355-1.5409-3.875-1.5409v2Zm2.461.9551c.627.6271.955 1.4204.955 2.4609h2c0-1.5195-.504-2.8382-1.541-3.8751l-1.414 1.4142Zm.955 2.4609V96.16h2V54.976h-2Zm0 41.184c0 .9362-.331 1.6952-1.024 2.3392l1.36 1.4656c1.099-1.02 1.664-2.309 1.664-3.8048h-2Zm-1.051 2.3649c-.638.6376-1.404.9551-2.365.9551v2c1.471 0 2.753-.514 3.779-1.5409l-1.414-1.4142ZM9.51613 97.0645v17.1295c0 2.102 1.70417 3.806 3.80647 3.806H114.194c2.102 0 3.806-1.704 3.806-3.806V13.3226c0-2.1023-1.704-3.80647-3.806-3.80647H97.0645c-2.1022 0-3.8064 1.70417-3.8064 3.80647v17.129H76.129c-2.1022 0-3.8064 1.7042-3.8064 3.8065v17.129H55.1935c-2.1022 0-3.8064 1.7042-3.8064 3.8064v17.1291h-17.129c-2.1023 0-3.8065 1.7042-3.8065 3.8064v17.1291h-17.129c-2.1023 0-3.80647 1.7042-3.80647 3.8064ZM2.01868 78.7284c-1.114888-1.1149-1.114888-2.9225 0-4.0374L74.691 2.01868c1.1149-1.114883 2.9225-1.114884 4.0374 0 1.1148 1.11488 1.1148 2.92247 0 4.03735L6.05603 78.7284c-1.11489 1.1149-2.92247 1.1149-4.03735 0Z"/></svg>